<svg version="1.1" id="Layer_1" xmlns="http://www.w3.org/2000/svg" xmlns:xlink="http://www.w3.org/1999/xlink" x="0px" y="0px"
	 width="60" height="60" viewBox="0 0 512 512" enable-background="new 0 0 512 512" xml:space="preserve">
<path fill="#673AB7" opacity="1.000000" stroke="none" 
	d="
M353.000000,513.000000 
	C235.361923,513.000000 118.223839,513.000000 1.042876,513.000000 
	C1.042876,342.403564 1.042876,171.807114 1.042876,1.105330 
	C171.554749,1.105330 342.109589,1.105330 512.832214,1.105330 
	C512.832214,171.666534 512.832214,342.333252 512.832214,513.000000 
	C459.807037,513.000000 406.653534,513.000000 353.000000,513.000000 
M263.500244,107.695297 
	C240.837509,107.771217 218.157608,107.311661 195.515671,108.036903 
	C151.300186,109.453178 111.883331,147.204330 109.138863,191.305817 
	C107.774948,213.222900 108.486977,235.271820 108.389091,257.261658 
	C108.376656,260.056610 108.889603,262.923035 109.600632,265.640839 
	C114.173546,283.120270 128.569687,293.790741 147.846985,293.812927 
	C202.008865,293.875275 256.170898,293.861908 310.332764,293.790253 
	C315.484222,293.783417 320.687378,293.513611 325.777802,292.763733 
	C373.600983,285.718811 406.842224,244.568314 405.568695,198.266754 
	C404.150482,146.704895 362.109070,108.397438 314.992798,107.844894 
	C298.163696,107.647537 281.331207,107.736832 263.500244,107.695297 
M161.499817,406.301727 
	C187.320938,406.296021 213.143082,406.420990 238.962723,406.222595 
	C249.811279,406.139221 257.800476,397.986115 257.910645,387.691437 
	C258.017822,377.670685 249.952698,368.960602 239.751678,368.920105 
	C201.937134,368.769867 164.119415,368.680145 126.309525,369.127838 
	C122.010048,369.178802 116.990334,371.917053 113.645882,374.908691 
	C107.976219,379.980164 106.966698,387.034271 109.729347,394.202637 
	C112.650627,401.782562 118.369980,405.975464 126.520027,406.146210 
	C137.842728,406.383453 149.172852,406.266876 161.499817,406.301727 
z"/>
<path fill="#FEFEFF" opacity="1.000000" stroke="none" 
	d="
M264.000244,107.695290 
	C281.331207,107.736832 298.163696,107.647537 314.992798,107.844894 
	C362.109070,108.397438 404.150482,146.704895 405.568695,198.266754 
	C406.842224,244.568314 373.600983,285.718811 325.777802,292.763733 
	C320.687378,293.513611 315.484222,293.783417 310.332764,293.790253 
	C256.170898,293.861908 202.008865,293.875275 147.846985,293.812927 
	C128.569687,293.790741 114.173546,283.120270 109.600632,265.640839 
	C108.889603,262.923035 108.376656,260.056610 108.389091,257.261658 
	C108.486977,235.271820 107.774948,213.222900 109.138863,191.305817 
	C111.883331,147.204330 151.300186,109.453178 195.515671,108.036903 
	C218.157608,107.311661 240.837509,107.771217 264.000244,107.695290 
M311.439850,144.928558 
	C274.440430,144.928757 237.440735,144.845993 200.441620,144.956024 
	C172.127975,145.040222 148.038315,166.994370 145.938217,195.217102 
	C144.988327,207.982452 145.546265,220.863480 145.508194,233.692291 
	C145.460175,249.880035 152.042847,256.493073 168.168381,256.498383 
	C215.001038,256.513855 261.833710,256.527069 308.666290,256.466583 
	C313.152527,256.460785 317.717072,256.370697 322.111206,255.577286 
	C351.525513,250.266266 370.724884,224.483429 367.977203,194.265503 
	C365.470398,166.697220 341.236633,145.177795 311.439850,144.928558 
z"/>
<path fill="#FFFEFF" opacity="1.000000" stroke="none" 
	d="
M160.999817,406.301758 
	C149.172852,406.266876 137.842728,406.383453 126.520027,406.146210 
	C118.369980,405.975464 112.650627,401.782562 109.729347,394.202637 
	C106.966698,387.034271 107.976219,379.980164 113.645882,374.908691 
	C116.990334,371.917053 122.010048,369.178802 126.309525,369.127838 
	C164.119415,368.680145 201.937134,368.769867 239.751678,368.920105 
	C249.952698,368.960602 258.017822,377.670685 257.910645,387.691437 
	C257.800476,397.986115 249.811279,406.139221 238.962723,406.222595 
	C213.143082,406.420990 187.320938,406.296021 160.999817,406.301758 
z"/>
<path fill="#683BB7" opacity="1.000000" stroke="none" 
	d="
M311.928528,144.928589 
	C341.236633,145.177795 365.470398,166.697220 367.977203,194.265503 
	C370.724884,224.483429 351.525513,250.266266 322.111206,255.577286 
	C317.717072,256.370697 313.152527,256.460785 308.666290,256.466583 
	C261.833710,256.527069 215.001038,256.513855 168.168381,256.498383 
	C152.042847,256.493073 145.460175,249.880035 145.508194,233.692291 
	C145.546265,220.863480 144.988327,207.982452 145.938217,195.217102 
	C148.038315,166.994370 172.127975,145.040222 200.441620,144.956024 
	C237.440735,144.845993 274.440430,144.928757 311.928528,144.928589 
z"/>
</svg>